HIERARCHY
ROOT Hips
{
 OFFSET 0.000000 0.000000 0.000000
 CHANNELS 6 Xposition Yposition Zposition Yrotation Xrotation Zrotation
 JOINT Chest
 {
  OFFSET 0.000000 9.585900 0.002600
  CHANNELS 3 Yrotation Xrotation Zrotation
  JOINT Chest2
  {
   OFFSET 0.000000 9.601200 -0.005300
   CHANNELS 3 Yrotation Xrotation Zrotation
   JOINT Chest3
   {
    OFFSET 0.000000 9.561800 0.000000
    CHANNELS 3 Yrotation Xrotation Zrotation
    JOINT Chest4
    {
     OFFSET 0.000000 9.552100 0.000000
     CHANNELS 3 Yrotation Xrotation Zrotation
     JOINT Neck
     {
      OFFSET 0.000000 14.453000 0.000000
      CHANNELS 3 Yrotation Xrotation Zrotation
      JOINT Head
      {
       OFFSET 0.000000 8.936500 -0.011300
       CHANNELS 3 Yrotation Xrotation Zrotation
       End Site
       {
        OFFSET 0.000000 17.073600 -0.006000
       }
      }
     }
     JOINT RightCollar
     {
      OFFSET -2.921100 9.558500 0.000000
      CHANNELS 3 Yrotation Xrotation Zrotation
      JOINT RightShoulder
      {
       OFFSET -13.519700 0.000000 0.000000
       CHANNELS 3 Yrotation Xrotation Zrotation
       JOINT RightElbow
       {
        OFFSET 0.000000 -29.696600 0.000000
        CHANNELS 3 Yrotation Xrotation Zrotation
        JOINT RightWrist
        {
         OFFSET 0.000000 -24.004700 0.000000
         CHANNELS 3 Yrotation Xrotation Zrotation
         End Site
         {
          OFFSET 0.000000 -17.728500 0.000000
         }
        }
       }
      }
     }
     JOINT LeftCollar
     {
      OFFSET 2.921100 9.558500 0.000000
      CHANNELS 3 Yrotation Xrotation Zrotation
      JOINT LeftShoulder
      {
       OFFSET 13.519700 0.000000 0.000000
       CHANNELS 3 Yrotation Xrotation Zrotation
       JOINT LeftElbow
       {
        OFFSET 0.000000 -29.696600 0.000000
        CHANNELS 3 Yrotation Xrotation Zrotation
        JOINT LeftWrist
        {
         OFFSET 0.000000 -24.004700 0.000000
         CHANNELS 3 Yrotation Xrotation Zrotation
         End Site
         {
          OFFSET 0.000000 -17.728500 0.000000
         }
        }
       }
      }
     }
    }
   }
  }
 }
 JOINT RightHip
 {
  OFFSET -7.771700 -0.012900 -0.001300
  CHANNELS 3 Yrotation Xrotation Zrotation
  JOINT RightKnee
  {
   OFFSET 0.000000 -40.869800 0.001200
   CHANNELS 3 Yrotation Xrotation Zrotation
   JOINT RightAnkle
   {
    OFFSET 0.000000 -39.717900 0.002100
    CHANNELS 3 Yrotation Xrotation Zrotation
    JOINT RightToe
    {
     OFFSET 0.000000 -4.965400 11.033500
     CHANNELS 3 Yrotation Xrotation Zrotation
     End Site
     {
      OFFSET 0.000000 -1.423100 5.872300
     }
    }
   }
  }
 }
 JOINT LeftHip
 {
  OFFSET 7.771700 -0.012900 -0.001300
  CHANNELS 3 Yrotation Xrotation Zrotation
  JOINT LeftKnee
  {
   OFFSET 0.000000 -40.869800 0.001200
   CHANNELS 3 Yrotation Xrotation Zrotation
   JOINT LeftAnkle
   {
    OFFSET 0.000000 -39.717900 0.002100
    CHANNELS 3 Yrotation Xrotation Zrotation
    JOINT LeftToe
    {
     OFFSET 0.000000 -4.965400 11.033500
     CHANNELS 3 Yrotation Xrotation Zrotation
     End Site
     {
      OFFSET 0.000000 -1.423100 5.872300
     }
    }
   }
  }
 }
}
MOTION
Frames: 12
Frame Time: 0.008333
0.000000 85.388000 0.000000 0.000000 -5.767877 0.000000 0.000000 11.653817 0.000000 0.000000 -5.885947 0.000000 0.000000 -0.000000 0.000000 0.000000 -0.000000 0.000000 0.000000 12.528835 0.000000 0.000000 0.711642 0.000000 0.000000 -0.000000 0.000000 0.000000 0.000000 -90.000000 0.000000 -2.309062 0.000000 0.000000 2.309062 0.000000 0.000000 -0.000000 0.000000 0.000000 -0.000000 90.000000 0.000000 -2.309062 0.000000 0.000000 2.309062 0.000000 0.000000 8.520406 0.000000 0.000000 1.905762 0.000000 -0.000000 -4.658285 0.000000 0.000000 -0.000000 0.000000 0.000000 8.520406 0.000000 0.000000 1.905762 0.000000 -0.000000 -4.658285 0.000000 0.000000 -0.000000 0.000000
-145.320105 52.113250 -58.861225 178.196511 -31.428666 0.966473 -1.273438 11.685855 -0.738457 -0.078385 0.812927 0.001446 -0.134321 1.393570 0.001790 -1.033800 10.623003 -0.070049 -7.231388 21.088715 -2.585802 -7.274031 -3.009092 -1.148510 0.292894 12.200026 7.050106 1.314984 -13.436440 -61.261723 124.136150 -44.286481 -179.880628 -1.568502 -1.706427 -21.244978 2.709093 13.875341 -9.085961 3.135638 -6.885770 52.736197 -164.752622 -41.705904 -148.988892 23.710412 -19.162381 3.061746 -8.404791 -51.413318 -0.052050 -54.822601 82.162188 -63.028723 -2.588722 -5.637735 6.752221 0.161381 -0.559302 0.102114 7.087967 -48.806642 -5.955323 14.382446 83.813143 19.210534 -3.223874 -9.837329 0.608264 0.078071 0.060734 0.079820
-145.329471 52.129530 -58.837231 178.214277 -31.575391 0.963819 -1.243635 11.690751 -0.725720 -0.077840 0.816788 0.001610 -0.133401 1.399980 0.002197 -1.024031 10.646144 -0.066563 -7.240941 21.093146 -2.588086 -7.304279 -2.954771 -1.154733 0.377494 12.283987 7.102814 1.374451 -13.354430 -61.164391 123.926187 -43.880275 -179.691330 -1.525878 -1.612674 -21.429716 2.657798 13.964790 -9.138374 3.075290 -6.753911 52.622168 -164.568126 -41.506334 -149.313034 23.682670 -19.046614 3.003982 -8.327208 -51.250147 -0.128013 -54.531288 82.130807 -62.726337 -2.593622 -5.611928 6.774407 0.159620 -0.608764 0.096782 7.068221 -48.642668 -5.939853 14.200465 83.754987 19.017959 -3.207294 -9.790263 0.606186 0.090708 0.055555 0.071869
-145.342349 52.143837 -58.804463 178.239902 -31.696977 0.968208 -1.223139 11.672523 -0.724265 -0.077397 0.820073 0.001886 -0.132605 1.405432 0.002661 -1.044101 10.722177 -0.071765 -7.216787 21.044176 -2.579174 -7.303203 -2.971449 -1.153330 0.489327 12.307551 7.160113 1.414710 -13.303553 -61.055698 123.769383 -43.493397 -179.518556 -1.485909 -1.513086 -21.590080 2.631659 14.010006 -9.164635 3.019121 -6.658401 52.469473 -164.421269 -41.332604 -149.604638 23.684307 -18.975428 2.862195 -8.227078 -51.109300 -0.220267 -54.188086 82.090045 -62.373848 -2.602232 -5.605732 6.795266 0.150205 -0.626748 0.102886 7.057853 -48.500795 -5.920167 14.013321 83.677392 18.799395 -3.250445 -9.747320 0.604211 0.103783 0.071883 0.096117
-145.354763 52.155967 -58.765999 178.234147 -31.795355 0.979402 -1.173577 11.632872 -0.712911 -0.077025 0.822891 0.002250 -0.131978 1.410143 0.003147 -1.022596 10.711942 -0.062318 -7.240480 21.079535 -2.588817 -7.300706 -2.984660 -1.153029 0.553339 12.406418 7.213503 1.445618 -13.273968 -60.934851 123.638859 -43.125825 -179.340803 -1.438206 -1.415541 -21.716985 2.562551 14.121816 -9.235127 2.958228 -6.570689 52.354204 -164.310450 -41.182332 -149.862093 23.710570 -18.927217 2.672138 -8.115299 -50.988625 -0.293236 -53.751568 82.054162 -61.934935 -2.583872 -5.627387 6.833543 0.112441 -0.662307 0.078223 7.085449 -48.386657 -5.917189 13.775873 83.605330 18.547354 -3.258174 -9.688746 0.634464 0.098485 0.075287 0.085147
-145.367445 52.171559 -58.734048 178.269049 -31.939040 0.968848 -1.159256 11.640098 -0.702613 -0.076585 0.825586 0.002578 -0.131262 1.414570 0.003666 -1.000908 10.698869 -0.053290 -7.263933 21.117770 -2.597873 -7.308542 -2.972834 -1.154753 0.614308 12.495331 7.269585 1.472012 -13.259929 -60.803466 123.507288 -42.780179 -179.140746 -1.392100 -1.332608 -21.804275 2.489814 14.230584 -9.306428 2.892720 -6.496463 52.242092 -164.219111 -41.054240 -150.089384 23.751268 -18.888987 2.464611 -8.023615 -50.822274 -0.372249 -53.421390 82.017937 -61.591840 -2.614274 -5.619546 6.847914 0.110973 -0.650772 0.094721 7.070352 -48.230478 -5.908298 13.631081 83.535863 18.390987 -3.270192 -9.623008 0.648741 0.086883 0.068915 0.092548
-145.381169 52.186752 -58.704717 178.314930 -32.086289 0.958694 -1.156030 11.655000 -0.699927 -0.076025 0.828167 0.002758 -0.130248 1.418779 0.004046 -0.991513 10.714106 -0.050108 -7.272341 21.126717 -2.598437 -7.317979 -2.961789 -1.153672 0.688306 12.549905 7.329137 1.491423 -13.268556 -60.661426 123.369198 -42.454429 -178.914089 -1.355471 -1.274446 -21.855204 2.427858 14.310712 -9.360925 2.824663 -6.439627 52.122925 -164.131512 -40.947730 -150.294149 23.798008 -18.857259 2.264232 -7.937367 -50.650336 -0.465273 -53.143155 81.985868 -61.293348 -2.634016 -5.647602 6.826516 0.115223 -0.650508 0.126205 7.066695 -48.070427 -5.908236 13.472219 83.468596 18.219023 -3.299551 -9.559281 0.671973 0.088575 0.063407 0.092873
-145.387506 52.206253 -58.686962 178.413411 -32.293182 0.880276 -1.191362 11.733544 -0.659626 -0.075315 0.830280 0.002827 -0.128965 1.422312 0.004166 -0.980545 10.727040 -0.048242 -7.283171 21.134741 -2.595561 -7.330988 -2.951604 -1.148309 0.757997 12.608682 7.387466 1.494491 -13.306343 -60.509035 123.254700 -42.144714 -178.687793 -1.317017 -1.241334 -21.871926 2.367455 14.383033 -9.414406 2.755243 -6.392851 52.017817 -164.047401 -40.860983 -150.478348 23.837752 -18.825822 2.101043 -7.847824 -50.401461 -0.544365 -53.133426 81.913231 -61.198841 -2.739208 -5.641237 6.787088 0.227828 -0.683385 0.176729 6.937385 -47.863243 -5.830026 13.385600 83.418955 18.122962 -3.310878 -9.505525 0.673621 0.095497 0.054133 0.093781
-145.400946 52.218177 -58.662638 178.440491 -32.422983 0.885245 -1.174828 11.737640 -0.666984 -0.074498 0.831808 0.002896 -0.127634 1.424865 0.004224 -0.969309 10.736605 -0.046623 -7.319765 21.194949 -2.598951 -7.331860 -2.994357 -1.130253 0.822404 12.669152 7.444099 1.476300 -13.360829 -60.355116 123.189820 -41.853313 -178.495264 -1.266184 -1.221510 -21.858748 2.312206 14.445768 -9.467457 2.684509 -6.353288 51.928048 -163.970983 -40.793608 -150.640281 23.834413 -18.791673 2.008035 -7.786185 -50.262723 -0.613832 -52.851590 81.903529 -60.928870 -2.748148 -5.624049 6.805774 0.212844 -0.701041 0.175259 6.935487 -47.722067 -5.835682 13.340643 83.360624 18.061591 -3.334145 -9.452465 0.690167 0.098262 0.049199 0.091060
-145.420930 52.227328 -58.639666 178.481236 -32.530654 0.927958 -1.178977 11.720390 -0.722466 -0.073734 0.832752 0.002879 -0.126405 1.426399 0.004224 -0.959184 10.742492 -0.045982 -7.326918 21.175881 -2.585262 -7.365704 -2.958499 -1.120210 0.827881 12.757104 7.477250 1.507409 -13.432004 -60.199658 123.164274 -41.584285 -178.345806 -1.202007 -1.198994 -21.826585 2.264053 14.497954 -9.517894 2.611702 -6.318981 51.852590 -163.896807 -40.749029 -150.780725 23.775344 -18.754888 1.975541 -7.686228 -50.154122 -0.745680 -52.594819 81.899124 -60.691891 -2.782698 -5.616377 6.842862 0.206538 -0.688817 0.174370 6.975313 -47.556998 -5.897258 13.109606 83.252184 17.818790 -3.421769 -9.495549 0.689322 0.157583 0.154665 0.114199
-145.430398 52.233882 -58.618354 178.468247 -32.618904 0.943919 -1.125931 11.687356 -0.721456 -0.073020 0.833077 0.002693 -0.125124 1.426912 0.003997 -0.949557 10.744752 -0.047202 -7.342671 21.154262 -2.569867 -7.404194 -2.924461 -1.107237 0.833837 12.846964 7.513585 1.547967 -13.487878 -60.059997 123.154173 -41.337815 -178.230619 -1.137445 -1.169524 -21.785304 2.219846 14.539475 -9.564239 2.538570 -6.288988 51.789895 -163.825211 -40.726522 -150.898496 23.813419 -18.668904 1.987938 -7.570680 -50.046229 -0.796294 -52.307054 81.885604 -60.429548 -2.763627 -5.647146 6.912188 0.134788 -0.669720 0.147916 6.993591 -47.461415 -5.895595 13.089902 83.209165 17.786109 -3.417619 -9.455514 0.700263 0.147193 0.151859 0.107827
-145.433677 52.244927 -58.609584 178.538333 -32.766305 0.887587 -1.161086 11.773982 -0.699440 -0.051072 0.773239 0.004904 -0.146084 1.486767 0.001632 -0.917561 10.683899 -0.047977 -7.376005 21.156182 -2.558982 -7.426865 -2.861321 -1.110936 0.970283 12.870321 7.611710 1.469707 -13.478233 -59.965692 123.153609 -41.108766 -178.142895 -1.093687 -1.141523 -21.736076 2.179849 14.573053 -9.606355 2.465053 -6.266019 51.735631 -163.765187 -40.717412 -150.993047 23.771943 -18.593501 2.072852 -7.472217 -49.864131 -0.843951 -52.377776 81.815288 -60.447863 -2.857846 -5.629151 6.894778 0.248029 -0.728454 0.171970 6.905383 -47.316926 -5.840153 13.095236 83.180689 17.781386 -3.420238 -9.427860 0.694003 0.143538 0.151985 0.117158
